<?xml version="1.0" encoding="utf-8"?><svg xmlns="http://www.w3.org/2000/svg" xmlns:xlink="http://www.w3.org/1999/xlink" width="1872" height="929" preserveAspectRatio="xMidYMid" viewBox="0 0 1872 929" style="z-index:1;margin-right:-2px;display:block;background-repeat-y:initial;background-repeat-x:initial;background-color:#a18be5;animation-play-state:paused" ><g transform="translate(936,464.5) scale(1,1) translate(-936,-464.5)" style="transform:matrix(1, 0, 0, 1, 0, 0);animation-play-state:paused" ><path d="M -100 541.92 C -65.91 543.93 -65.61 545.79 -33.16 545.79 S 2.21 552.42 33.68 552.42 S 68.46 547.35 100.52 547.35 S 133.96 561.02 167.35 561.02 S 202.09 540.04 234.19 540.04 S 269.17 556.15 301.03 556.15 S 335.16 560.34 367.87 560.34 S 402.77 555.16 434.71 555.16 S 469.73 542.13 501.55 542.13 S 536.41 539.02 568.39 539.02 S 603.34 545.99 635.23 545.99 S 670.6 558.45 702.06 558.45 S 735.91 547 768.9 547 S 803.17 549.39 835.74 549.39 S 869.41 541.99 902.58 541.99 S 936.72 538.86 969.42 538.86 S 1003.15 548.95 1036.26 548.95 S 1070.79 548.77 1103.1 548.77 S 1138.65 546.29 1169.94 546.29 S 1204.67 559.1 1236.77 559.1 S 1271.99 548.19 1303.61 548.19 S 1337.59 560.14 1370.45 560.14 S 1405 555.47 1437.29 555.47 S 1471.42 555.98 1504.13 555.98 S 1538.23 547.87 1570.97 547.87 S 1605.04 547.23 1637.81 547.23 S 1673.32 552.27 1704.65 552.27 S 1738.88 541.67 1771.48 541.67 S 1807.14 544.04 1838.32 544.04 S 1872.16 547.4 1905.16 547.4 S 1939.76 548.42 1972 548.42 S 2006.31 541.26 2038.84 541.26 L 1972 929 L -100 929 Z" fill="#0a0a0a" stroke-width="0" transform="matrix(1,0,0,1,0,0)" style="transform:matrix(1, 0, 0, 1, 0, 0);animation-play-state:paused" ></path>
<path d="M -100 585.01 C -65.11 568.87 -64.17 570.48 -31.39 570.48 S 3.73 571.44 37.22 571.44 S 73.17 589.29 105.83 589.29 S 141 582.14 174.44 582.14 S 210.51 578.97 243.05 578.97 S 277.94 563.23 311.66 563.23 S 346.65 570.07 380.26 570.07 S 416.41 576.27 448.87 576.27 S 485.09 568.36 517.48 568.36 S 552.04 588.88 586.09 588.88 S 621.41 573.16 654.7 573.16 S 689.8 564.05 723.31 564.05 S 758.22 566.88 791.92 566.88 S 827.94 570.46 860.53 570.46 S 896.6 576.68 929.14 576.68 S 965.17 584.3 997.75 584.3 S 1033.44 573.55 1066.36 573.55 S 1102.08 573.07 1134.97 573.07 S 1169.67 587.39 1203.58 587.39 S 1238.81 589.77 1272.19 589.77 S 1307.57 585.19 1340.79 585.19 S 1375.43 577.8 1409.4 577.8 S 1444.16 563.72 1478.01 563.72 S 1514.58 571.64 1546.62 571.64 S 1582.97 577.89 1615.23 577.89 S 1650.35 566.54 1683.84 566.54 S 1720.45 580.27 1752.45 580.27 S 1789.06 577.92 1821.06 577.92 S 1856.38 580.06 1889.67 580.06 S 1924.27 563.64 1958.28 563.64 S 1994.45 576.48 2026.89 576.48 L 1972 929 L -100 929 Z" fill="#0e0e0e" stroke-width="0" transform="matrix(1,0,0,1,1.1340199708938599,0)" style="transform:matrix(1, 0, 0, 1, 1.13402, 0);animation-play-state:paused" ></path>
<path d="M -100 592.19 C -63.82 599.94 -63.02 600.21 -29.52 600.21 S 7 603.33 40.95 603.33 S 76.47 607.44 111.43 607.44 S 146.93 597.11 181.9 597.11 S 219.04 594.84 252.38 594.84 S 289.77 600.2 322.86 600.2 S 359.27 607.65 393.33 607.65 S 430.44 587.19 463.81 587.19 S 501.02 609.53 534.29 609.53 S 570.05 595.26 604.76 595.26 S 641.74 614.5 675.24 614.5 S 711.44 605.81 745.71 605.81 S 781.91 596.31 816.19 596.31 S 852.95 593.62 886.67 593.62 S 922.78 596.17 957.14 596.17 S 993.31 603.17 1027.62 603.17 S 1062.97 601.19 1098.1 601.19 S 1134.76 594.92 1168.57 594.92 S 1204.59 597.04 1239.05 597.04 S 1275.58 587.74 1309.52 587.74 S 1345.27 604.26 1380 604.26 S 1417.28 608.45 1450.48 608.45 S 1486.83 608.75 1520.95 608.75 S 1557.23 587.49 1591.43 587.49 S 1627.54 602.9 1661.9 602.9 S 1697.24 585.35 1732.38 585.35 S 1769.31 597.75 1802.86 597.75 S 1838.96 609.72 1873.33 609.72 S 1908.8 611.73 1943.81 611.73 S 1979.63 598.24 2014.29 598.24 L 1972 929 L -100 929 Z" fill="#121212" stroke-width="0" transform="matrix(1,0,0,1,3.5863146781921387,0)" style="transform:matrix(1, 0, 0, 1, 3.58631, 0);animation-play-state:paused" ></path>
<path d="M -100 628.79 C -62.32 610.01 -63.01 638.58 -27.55 638.58 S 8.88 629.25 44.9 629.25 S 81.55 623.74 117.34 623.74 S 154.29 613.99 189.79 613.99 S 228.05 640.18 262.24 640.18 S 300.32 628.74 334.69 628.74 S 371.68 624.25 407.13 624.25 S 445.47 613.05 479.58 613.05 S 517.53 643.88 552.03 643.88 S 589 611.07 624.48 611.07 S 660.91 623.06 696.92 623.06 S 734.43 630.79 769.37 630.79 S 806.88 633.03 841.82 633.03 S 878.51 624.55 914.27 624.55 S 951.28 638.92 986.71 638.92 S 1024.11 609.29 1059.16 609.29 S 1097.17 637.58 1131.61 637.58 S 1168.28 625.21 1204.06 625.21 S 1241.39 626.85 1276.5 626.85 S 1313.14 620.13 1348.95 620.13 S 1386.25 631.58 1421.4 631.58 S 1457.68 615.09 1493.85 615.09 S 1531.81 636.23 1566.29 636.23 S 1602.67 642.94 1638.74 642.94 S 1675.51 621.93 1711.19 621.93 S 1748.71 613.72 1783.64 613.72 S 1821.79 631.59 1856.08 631.59 S 1892.58 610.8 1928.53 610.8 S 1966.12 629.46 2000.98 629.46 L 1972 929 L -100 929 Z" fill="#151515" stroke-width="0" transform="matrix(1,0,0,1,6.4136857986450195,0)" style="transform:matrix(1, 0, 0, 1, 6.41369, 0);animation-play-state:paused" ></path>
<path d="M -100 641.8 C -60.68 637.33 -61.13 652.85 -25.47 652.85 S 13.09 650.52 49.06 650.52 S 88.58 634.48 123.6 634.48 S 161.33 637.34 198.13 637.34 S 237.07 650.82 272.66 650.82 S 311.45 637.42 347.19 637.42 S 386.32 653.74 421.73 653.74 S 459.92 667.21 496.26 667.21 S 535.19 661.58 570.79 661.58 S 608.47 660.13 645.32 660.13 S 684.9 660.32 719.86 660.32 S 757.89 652.31 794.39 652.31 S 832.32 654.17 868.92 654.17 S 907.65 640.47 943.45 640.47 S 981.94 648.31 1017.99 648.31 S 1057.41 647.81 1092.52 647.81 S 1130.89 671.88 1167.05 671.88 S 1206.17 633.55 1241.58 633.55 S 1280.74 669.26 1316.12 669.26 S 1353.99 644.47 1390.65 644.47 S 1428.81 654.52 1465.18 654.52 S 1504.59 647.67 1539.71 647.67 S 1578.28 673.04 1614.24 673.04 S 1652.18 638.49 1688.78 638.49 S 1726.33 638.78 1763.31 638.78 S 1801.21 642.3 1837.84 642.3 S 1876.02 642.42 1912.37 642.42 S 1950.24 654.2 1986.91 654.2 L 1972 929 L -100 929 Z" fill="#181818" stroke-width="0" transform="matrix(1,0,0,1,8.86598014831543,0)" style="transform:matrix(1, 0, 0, 1, 8.86598, 0);animation-play-state:paused" ></path>
<path d="M -100 666.14 C -60.53 675.14 -59.4 701.13 -23.26 701.13 S 17.35 678.12 53.48 678.12 S 92.51 660.43 130.22 660.43 S 169.01 660.56 206.96 660.56 S 246.93 684.39 283.7 684.39 S 323.8 662.32 360.44 662.32 S 399.63 695.46 437.19 695.46 S 475.97 662.07 513.93 662.07 S 553.73 681.51 590.67 681.51 S 629.14 664.39 667.41 664.39 S 706.28 681.13 744.15 681.13 S 784.42 676.76 820.89 676.76 S 859.31 691.81 897.63 691.81 S 936.29 663.97 974.37 663.97 S 1014.23 684.47 1051.11 684.47 S 1090.23 676.3 1127.85 676.3 S 1168.5 665.41 1204.59 665.41 S 1244.1 655.54 1281.33 655.54 S 1320.95 682.56 1358.07 682.56 S 1396.54 671.55 1434.81 671.55 S 1473.36 682.19 1511.56 682.19 S 1551.31 672.27 1588.3 672.27 S 1627.39 698.58 1665.04 698.58 S 1703.42 661.67 1741.78 661.67 S 1782.33 687.25 1818.52 687.25 S 1858.07 692.97 1895.26 692.97 S 1935.69 696.04 1972 696.04 S 2010.5 676.11 2048.74 676.11 L 1972 929 L -100 929 Z" fill="#1b1b1b" stroke-width="0" transform="matrix(1,0,0,1,10,0)" style="transform:matrix(1, 0, 0, 1, 10, 0);animation-play-state:paused" ></path>
<path d="M -100 690.43 C -59.01 689.88 -58.4 715.79 -20.92 715.79 S 18.65 679.6 58.17 679.6 S 99.2 719.11 137.25 719.11 S 177.52 700.62 216.34 700.62 S 256.78 710.55 295.42 710.55 S 335.93 691.09 374.5 691.09 S 415.55 693.68 453.59 693.68 S 494.27 686.99 532.67 686.99 S 572.81 723.86 611.76 723.86 S 651.88 682.43 690.84 682.43 S 732.52 693.56 769.92 693.56 S 810.72 688.86 849.01 688.86 S 889.07 720.03 928.09 720.03 S 967.81 690.59 1007.18 690.59 S 1048.65 724.65 1086.26 724.65 S 1125.91 692.24 1165.34 692.24 S 1205.62 717.6 1244.43 717.6 S 1284.81 693.99 1323.51 693.99 S 1363.07 721 1402.6 721 S 1442.55 701.05 1481.68 701.05 S 1521.61 715.83 1560.76 715.83 S 1602.37 697.93 1639.85 697.93 S 1680.48 716.22 1718.93 716.22 S 1759.01 701.16 1798.02 701.16 S 1839.23 717.8 1877.1 717.8 S 1918.4 679.21 1956.18 679.21 S 1997.96 680.49 2035.27 680.49 L 1972 929 L -100 929 Z" fill="#1e1e1e" stroke-width="0" transform="matrix(1,0,0,1,8.86598014831543,0)" style="transform:matrix(1, 0, 0, 1, 8.86598, 0);animation-play-state:paused" ></path>
<path d="M -100 747.9 C -58.29 740.12 -58.72 751.19 -18.43 751.19 S 24.64 719.32 63.15 719.32 S 105.48 745.54 144.72 745.54 S 186.37 706.85 226.3 706.85 S 268.51 747.19 307.87 747.19 S 350.24 705.62 389.45 705.62 S 432.09 739.25 471.02 739.25 S 513.17 705.39 552.6 705.39 S 595.24 739.99 634.17 739.99 S 676.8 724.11 715.75 724.11 S 757.64 746.96 797.32 746.96 S 840.16 702.61 878.9 702.61 S 921.27 711.73 960.47 711.73 S 1001.54 720.27 1042.05 720.27 S 1085.06 742.74 1123.62 742.74 S 1166.44 705.02 1205.2 705.02 S 1246.45 738.8 1286.77 738.8 S 1329.87 704.82 1368.35 704.82 S 1409.56 747.34 1449.92 747.34 S 1492.96 715.45 1531.5 715.45 S 1574.18 713.64 1613.07 713.64 S 1655.64 701.88 1694.65 701.88 S 1737.33 733.96 1776.22 733.96 S 1818.14 748.23 1857.8 748.23 S 1899.36 703.24 1939.37 703.24 S 1980.56 714.86 2020.94 714.86 L 1972 929 L -100 929 Z" fill="#202020" stroke-width="0" transform="matrix(1,0,0,1,6.4136857986450195,0)" style="transform:matrix(1, 0, 0, 1, 6.41369, 0);animation-play-state:paused" ></path>
<path d="M -100 740.34 C -56.89 732.44 -55.75 764.53 -15.77 764.53 S 27.45 728.95 68.46 728.95 S 112.81 764.27 152.68 764.27 S 195.54 739.53 236.91 739.53 S 279.91 783.37 321.14 783.37 S 363.97 728.66 405.37 728.66 S 449.57 774 489.59 774 S 532.57 747.47 573.82 747.47 S 616.22 743.31 658.05 743.31 S 701.47 733.23 742.28 733.23 S 785.62 739.54 826.5 739.54 S 869.89 735.74 910.73 735.74 S 954.13 766.67 994.96 766.67 S 1037.54 773.61 1079.19 773.61 S 1122.76 775.49 1163.41 775.49 S 1207.12 732.25 1247.64 732.25 S 1291.08 774.14 1331.87 774.14 S 1375.68 726.91 1416.1 726.91 S 1460.28 781.13 1500.33 781.13 S 1543.94 746.58 1584.55 746.58 S 1628.56 769.49 1668.78 769.49 S 1710.94 735.08 1753.01 735.08 S 1795.52 774.48 1837.24 774.48 S 1880.03 742.63 1921.46 742.63 S 1963.99 780.38 2005.69 780.38 L 1972 929 L -100 929 Z" fill="#232323" stroke-width="0" transform="matrix(1,0,0,1,3.5863142013549805,0)" style="transform:matrix(1, 0, 0, 1, 3.58631, 0);animation-play-state:paused" ></path>
<path d="M -100 754.64 C -54.93 752.55 -54.63 796.97 -12.94 796.97 S 32.78 766.27 74.12 766.27 S 119.05 801.76 161.18 801.76 S 205.91 770.3 248.24 770.3 S 292.56 748.98 335.29 748.98 S 379.53 760.41 422.35 760.41 S 466.28 811.53 509.41 811.53 S 554.14 765.93 596.47 765.93 S 640.05 797.6 683.53 797.6 S 727.47 765 770.59 765 S 814.14 812.6 857.65 812.6 S 902.35 767.74 944.71 767.74 S 988.89 808.59 1031.76 808.59 S 1077.58 765.95 1118.82 765.95 S 1163.33 802.92 1205.88 802.92 S 1249.77 757.69 1292.94 757.69 S 1337.58 805.28 1380 805.28 S 1425.01 752.72 1467.06 752.72 S 1511.46 808.14 1554.12 808.14 S 1598.01 762.67 1641.18 762.67 S 1686.93 803.26 1728.24 803.26 S 1773.44 768.29 1815.29 768.29 S 1858.83 750.28 1902.35 750.28 S 1946.5 758.57 1989.41 758.57 L 1972 929 L -100 929 Z" fill="#262626" stroke-width="0" transform="matrix(1,0,0,1,1.1340198516845703,0)" style="transform:matrix(1, 0, 0, 1, 1.13402, 0);animation-play-state:paused" ></path></g></svg>